<svg xmlns="http://www.w3.org/2000/svg" xmlns:xlink="http://www.w3.org/1999/xlink" width="1080" zoomAndPan="magnify" viewBox="0 0 810 809.999993" height="1080" preserveAspectRatio="xMidYMid meet" version="1.0"><rect x="-81" width="972" fill="#ffffff" y="-80.999999" height="971.999992" fill-opacity="1"/><rect x="-81" width="972" fill="#ffffff" y="-80.999999" height="971.999992" fill-opacity="1"/><rect x="-81" width="972" fill="#ffffff" y="-80.999999" height="971.999992" fill-opacity="1"/><path fill="#555555" d="M 247.28125 548.3125 L 273.96875 432.75 C 275.023438 427.832031 279.234375 423.96875 284.503906 423.265625 L 433.742188 407.808594 C 437.957031 407.457031 437.957031 401.136719 433.742188 400.433594 L 284.503906 386.03125 C 279.234375 385.679688 275.023438 381.816406 273.96875 376.898438 L 247.28125 261.6875 C 244.824219 251.851562 255.355469 243.773438 264.488281 248.339844 L 556.292969 394.460938 C 565.074219 399.027344 565.074219 411.675781 556.292969 416.238281 L 264.488281 561.660156 C 255.355469 566.226562 244.824219 558.148438 247.28125 548.3125 Z M 247.28125 548.3125 " fill-opacity="1" fill-rule="nonzero"/></svg>